<svg role="img" version="1.1" xmlns="http://www.w3.org/2000/svg" xmlns:xlink="http://www.w3.org/1999/xlink" x="0px" y="0px" xml:space="preserve" aria-hidden="{{ include.hidden }}"
    width="29" height="29" viewBox="0 0 24 24"
    aria-labelledby="instagramTitle--{{ include.id | strip }} instagramDesc--{{ include.id | strip }}" id="instagram--{{ include.id | strip }}">

    <title id="instagramTitle--{{ include.id | strip }}">Instagram</title>
    <desc id="instagramDesc--{{ include.id | strip }}">La imágen de marca de Instagram combina un círculo pequeño dentro de un cuadrado con un punto en su parte superior derecha para que simule una cámara de fotos. El fondo combina un degradado de colores rojos, naranjas, amarillos, azules y violetas como un arco iris.</desc>

    <defs>
        <linearGradient
            id="instagram-linearGradient--{{ include.id | strip }}"
            gradientUnits="userSpaceOnUse"
            gradientTransform="rotate(110)">
            <stop offset="0%" stop-color="#893dc2" />
            <stop offset="20%" stop-color="#bc318f" />
            <stop offset="50%" stop-color="#e33f5f" />
            <stop offset="70%" stop-color="#f77638" />
            <stop offset="100%" stop-color="#fec66d" />
        </linearGradient>
    </defs>
    <style type="text/css">
        #instagram--{{ include.id | strip }} {
            background: none;
        }
        .a--instagram {
            fill:url(#instagram-linearGradient--{{ include.id | strip }});
        }
    </style>
    <path class="a--instagram" d="M12 2.163c3.204 0 3.584.012 4.85.07 3.252.148 4.771 1.691 4.919 4.919.058 1.265.069 1.645.069 4.849 0 3.205-.012 3.584-.069 4.849-.149 3.225-1.664 4.771-4.919 4.919-1.266.058-1.644.07-4.85.07-3.204 0-3.584-.012-4.849-.07-3.26-.149-4.771-1.699-4.919-4.92-.058-1.265-.07-1.644-.07-4.849 0-3.204.013-3.583.07-4.849.149-3.227 1.664-4.771 4.919-4.919 1.266-.057 1.645-.069 4.849-.069zm0-2.163c-3.259 0-3.667.014-4.947.072-4.358.2-6.78 2.618-6.98 6.98-.059 1.281-.073 1.689-.073 4.948 0 3.259.014 3.668.072 4.948.2 4.358 2.618 6.78 6.98 6.98 1.281.058 1.689.072 4.948.072 3.259 0 3.668-.014 4.948-.072 4.354-.2 6.782-2.618 6.979-6.98.059-1.28.073-1.689.073-4.948 0-3.259-.014-3.667-.072-4.947-.196-4.354-2.617-6.78-6.979-6.98-1.281-.059-1.69-.073-4.949-.073zm0 5.838c-3.403 0-6.162 2.759-6.162 6.162s2.759 6.163 6.162 6.163 6.162-2.759 6.162-6.163c0-3.403-2.759-6.162-6.162-6.162zm0 10.162c-2.209 0-4-1.79-4-4 0-2.209 1.791-4 4-4s4 1.791 4 4c0 2.21-1.791 4-4 4zm6.406-11.845c-.796 0-1.441.645-1.441 1.44s.645 1.44 1.441 1.44c.795 0 1.439-.645 1.439-1.44s-.644-1.44-1.439-1.44z" />
</svg>
