<svg role="img" version="1.1" xmlns="http://www.w3.org/2000/svg" xmlns:xlink="http://www.w3.org/1999/xlink" x="0px" y="0px" xml:space="preserve"
    enable-background="new 0 0 500 500" aria-hidden="{{ include.hidden }}"
    width="500px" height="500px" viewBox="0 0 500 500"
    aria-labelledby="telefonoTitle--{{ include.id | strip }} telefonoDesc--{{ include.id | strip }}" id="telefono--{{ include.id | strip }}">

    <title id="telefonoTitle--{{ include.id | strip }}">Teléfono</title>
    <desc id="telefonoDesc--{{ include.id | strip }}">Dibujo de teléfono de mesa</desc>

    <path clip-rule="evenodd" d="M250,31.949c-77.679,0-155.545,13.902-183.798,41.611  c-23.441,22.988-31.255,63.599-33.889,89.312c0,0-0.363,2.541-0.363,3.634c0,10.083,8.175,18.17,18.17,18.17  c1.181,0,44.882-3.544,71.229-5.724c0.634-0.092,1.273-0.182,1.907-0.363c9.813-0.271,17.719-8.268,17.719-18.17l0.088-35.798  c0-11.084,8.998-19.989,20.083-19.989h177.707c11.087,0,20.086,8.904,20.086,19.989l0.089,35.798c0,9.902,7.905,17.899,17.717,18.17  c0.63,0.182,1.269,0.271,1.91,0.363c26.349,2.179,70.049,5.724,71.226,5.724c9.991,0,18.172-8.087,18.172-18.17  c0-1.093-0.363-3.634-0.363-3.634c-2.636-25.713-10.441-66.323-33.883-89.312C405.545,45.851,327.679,31.949,250,31.949z   M250,268.172c-20.079,0-36.342,16.262-36.342,36.341s16.263,36.34,36.342,36.34s36.341-16.261,36.341-36.34  S270.079,268.172,250,268.172z M222.744,186.401v-22.713c0-12.537-10.177-22.713-22.713-22.713s-22.713,10.177-22.713,22.713v22.713  L54.75,317.324c-8.446,8.269-13.717,19.804-13.717,32.527v36.433c0,20.079,16.264,36.34,36.342,36.34h9.086v22.716  c0,12.536,10.178,22.711,22.714,22.711s22.713-10.175,22.713-22.711v-22.716h236.224v22.716c0,12.536,10.174,22.711,22.715,22.711  c12.536,0,22.711-10.175,22.711-22.711v-22.716h9.086c20.079,0,36.341-16.261,36.341-36.34v-36.433  c0-12.724-5.27-24.259-13.717-32.527L322.685,186.401v-22.713c0-12.537-10.179-22.713-22.715-22.713s-22.712,10.177-22.712,22.713  v22.713H222.744z M250,231.83c40.158,0,72.685,32.526,72.685,72.683c0,40.158-32.526,72.686-72.685,72.686  c-40.158,0-72.683-32.527-72.683-72.686C177.317,264.355,209.842,231.83,250,231.83z" fill-rule="evenodd" />
</svg>
