<svg version="1.1" class="html5"
	 xmlns="http://www.w3.org/2000/svg" xmlns:xlink="http://www.w3.org/1999/xlink" x="0px" y="0px" width="182px" height="64px"
	 viewBox="0 0 182 64" style="enable-background:new 0 0 182 64;" xml:space="preserve">
<g id="fondo-2">
	<path style="fill:none;" d="M83.577,26.244c-3.152-0.115-6.312-0.119-9.466-0.041c-0.857,0.021-1.585,0.672-1.587,1.613
		c-0.003,1.162,1.003,1.085,1.797,1.18c2.251,0.268,4.585-0.459,7.472,0.739c-1.473,0.145-2.301,0.113-3.064,0.321
		c-2.179,0.593-6.144-1.516-6.23,1.613c-0.073,2.635,3.867,0.812,5.953,1.335c0.928,0.232,2.16-0.063,2.333,1.274
		c0.169,1.304-1.001,1.441-1.899,1.884c-1.762,0.866-3.254,0.465-4.565-0.764c-1.025-0.961-2.07-2.157-3.097-0.295
		c-0.729,1.32,0.004,2.34,1.338,3.245c3.504,2.375,7.098,1.463,9.708-0.709c2.904-2.415,2.502-6.566,2.576-10.167
		C84.855,27.054,84.035,26.261,83.577,26.244z"/>
	<path style="fill:none;" d="M103.521,30.688c4.455-3.353,8.795-2.849,13.209,0.087c0.637,0.424,1.63,0.325,1.947-0.934
		c-0.162-0.342-0.308-0.811-0.576-1.191c-3.091-4.386-12.623-4.492-16.066-0.156c-0.366,0.462-0.732,1.271-0.569,1.732
		C101.81,31.201,102.881,31.171,103.521,30.688z"/>
	<path style="fill:none;" d="M101.857,38.353c-0.381,0.397-0.686,1.275-0.508,1.725c0.496,1.251,1.65,1.033,2.467,0.454
		c4.127-2.928,8.169-2.987,12.326-0.039c0.984,0.699,2.219,0.884,2.701-0.939c-0.19-0.354-0.337-0.845-0.65-1.178
		C114.842,34.816,105.279,34.783,101.857,38.353z"/>
	<path style="fill:none;" d="M103.954,35.524c1.934-0.904,3.854-1.839,5.983-2.859c1.998,0.935,3.916,1.858,5.858,2.729
		c1.026,0.459,2.259,1.242,2.89-0.396c0.458-1.19-0.641-1.542-1.472-2.145c-4.932-3.569-9.733-3.172-14.628,0.072
		c-0.939,0.622-1.748,1.203-1.224,2.275C101.93,36.361,103.03,35.957,103.954,35.524z"/>
	<path style="fill:#D8D8D8;" d="M138.789,16.709c-0.051-0.159-0.155-0.308-0.172-0.468c-0.362-3.488-2.256-4.351-5.705-4.328
		c-25.652,0.166-51.308,0.096-76.962,0.101c-1.833,13.952-2.93,27.973-3.835,42.011c1-0.009,1.999-0.024,2.999-0.024
		c25.987-0.001,51.975,0.016,77.962-0.034c1.948-0.004,3.972,0.756,5.089-2.425C144.254,34.205,144.375,34.248,138.789,16.709z"/>
</g>
<g id="cualificaciones">
	<g id="semantic">
		<polygon id="superior" style="fill:#9E9E9E;" points="111.428,22.958 101.426,28.014 101.426,31.338 111.428,26.283
			121.426,31.338 121.426,28.014 		"/>
		<g id="media">
			<polygon id="chevron_1_" style="fill:#9E9E9E;" points="111.428,28.761 101.426,33.816 101.426,37.141 111.428,32.085
				121.426,37.141 121.426,33.816 			"/>
		</g>
		<g id="inferior">
			<polygon id="chevron_2_" style="fill:#9E9E9E;" points="111.428,34.565 101.426,39.62 101.426,42.944 111.428,37.89
				121.426,42.944 121.426,39.62 			"/>
		</g>
	</g>
	<path id="css3_1_" style="fill:#9E9E9E;" d="M71.195,23.565l-0.742,3.709h15.098l-0.472,2.396H69.972L69.24,33.38h15.098
		l-0.842,4.23l-6.086,2.016l-5.272-2.016l0.36-1.834h-3.709l-0.883,4.451l8.723,3.338l10.055-3.338l1.333-6.697l0.271-1.344
		l1.714-8.621H71.195z"/>
</g>
<g id="html5_1_">
	<path style="fill:#E34F26;" d="M5.867,57.785l-5.125-57.5h56.375l-5.125,57.5l-23.125,6.5"/>
	<path style="fill:#EF652A;" d="M28.992,59.285l18.625-5.125l4.375-49.25h-23"/>
	<path style="fill:#EBEBEB;" d="M28.992,26.285h-9.375l-0.625-7.25h10v-7h-0.125H11.242l0.125,1.875l1.75,19.5h15.875V26.285z
		 M28.992,44.66h-0.125l-7.875-2.125l-0.5-5.625h-3.75h-3.25l0.875,11.125l14.5,4h0.125V44.66z"/>
	<path style="fill:#FFFFFF;" d="M28.867,26.285v7.125h8.75l-0.875,9.125l-7.875,2.125v7.375l14.5-4l0.125-1.25l1.625-18.625
		l0.25-1.875h-2H28.867z M28.867,12.035v4.375v2.625l0,0h17.125l0,0l0,0l0.125-1.5l0.375-3.625l0.125-1.875H28.867z"/>
</g>
</svg>
