<svg role="img" version="1.1" xmlns="http://www.w3.org/2000/svg" xmlns:xlink="http://www.w3.org/1999/xlink" x="0px" y="0px" xml:space="preserve" aria-hidden="{{ include.hidden }}"
    width="120" height="120" viewBox="0 0 120 120"
    aria-labelledby="stackoverflowTitle--{{ include.id | strip }} stackoverflowDesc--{{ include.id | strip }}" id="stackoverflow--{{ include.id | strip }}">

    <title id="stackoverflowTitle--{{ include.id | strip }}">Stack Overflow</title>
    <desc id="stackoverflowDesc--{{ include.id | strip }}">El logo de Stack Overflow son cinco líneas de color naranja apiladas una encima de otra en abanico sobre un paréntesis boca arriba de color gris, como simulando cinco libros de lomo naranja cayendo en una bandeja gris.</desc>

    <style type="text/css">
        .st0--stackoverflow{fill:#bcbbbb;}
        .invertir--stackoverflow {fill:#f48023;}
        #stackoverflow--{{ include.id | strip }} {
        -webkit-transform: scale(1.5);
        transform: scale(1.5);
        overflow: hidden;
        }
    </style>

    <polygon class="st0--stackoverflow" points="84.4,93.8 84.4,70.6 92.1,70.6 92.1,101.5 22.6,101.5 22.6,70.6 30.3,70.6 30.3,93.8 " />
    <path class="invertir--stackoverflow" d="M38.8,68.4l37.8,7.9l1.6-7.6l-37.8-7.9L38.8,68.4z M43.8,50.4l35,16.3l3.2-7l-35-16.4L43.8,50.4z M53.5,33.2
        l29.7,24.7l4.9-5.9L58.4,27.3L53.5,33.2z M72.7,14.9l-6.2,4.6l23,31l6.2-4.6L72.7,14.9z M38,86h38.6v-7.7H38V86z" />
</svg>
