<svg role="img" version="1.1" xmlns="http://www.w3.org/2000/svg" xmlns:xlink="http://www.w3.org/1999/xlink" x="0px" y="0px" xml:space="preserve" aria-hidden="{{ include.hidden }}"
    width="256" height="236" viewBox="0 0 256 236"
    aria-labelledby="gitlabTitle--{{ include.id | strip }} gitlabDesc--{{ include.id | strip }}" id="gitlab--{{ include.id | strip }}">

    <title id="gitlabTitle--{{ include.id | strip }}">GitLab</title>
    <desc id="gitlabDesc--{{ include.id | strip }}">La imágen de marca de GitLab es una combinación de siete triángulos en tres tonos naranja que dibujan un zorro.</desc>

    <style type="text/css">
      .a--gitlab {
        fill:#E24329;
      }
      .b--gitlab {
        fill:#FC6D26;
      }
      .c--gitlab {
        fill:#FCA326;
      }
    </style>

      <path d="M128.075 236.075l47.104-144.97H80.97l47.104 144.97z" class="a--gitlab" />
      <path d="M128.075 236.074L80.97 91.104H14.956l113.119 144.97z" class="b--gitlab" />
      <path d="M14.956 91.104L0.642 135.16a9.752 9.752 0 0 0 3.542 10.903l123.891 90.012-113.12-144.97z" class="c--gitlab" />
      <path d="M14.956 91.105H80.97L52.601 3.79c-1.46-4.493-7.816-4.492-9.275 0l-28.37 87.315z" class="a--gitlab" />
      <path d="M128.075 236.074l47.104-144.97h66.015l-113.12 144.97z" class="b--gitlab" />
      <path d="M241.194 91.104l14.314 44.056a9.752 9.752 0 0 1-3.543 10.903l-123.89 90.012 113.119-144.97z" class="c--gitlab" />
      <path d="M241.194 91.105h-66.015l28.37-87.315c1.46-4.493 7.816-4.492 9.275 0l28.37 87.315z" class="a--gitlab" />
</svg>
