<svg role="img" version="1.1" xmlns="http://www.w3.org/2000/svg" xmlns:xlink="http://www.w3.org/1999/xlink" x="0px" y="0px" xml:space="preserve" aria-hidden="{{ include.hidden }}"
    width="18" height="15" viewBox="0 0 18 15"
    aria-labelledby="menuTitle--{{ include.id | strip }} menuDesc--{{ include.id | strip }}"
    id="menu--{{ include.id | strip }}">

    <title id="menuTitle--{{ include.id | strip }}">LMenú desplegable</title>
    <desc id="menuDesc--{{ include.id | strip }}">La imágen del menú desplegable son tres líneas horizontales apiladas una encima de la otra, como si fuera un signo de igual con una raya extra.</desc>

    <style>
        .a {
        fill:#424242;
        }
    </style>

    <path d="M18 1.484c0 0.82-0.665 1.484-1.484 1.484H1.484C0.665 2.969 0 2.304 0 1.484l0 0C0 0.665 0.665 0 1.484 0h15.031C17.335 0 18 0.665 18 1.484L18 1.484z" class="a" />
    <path d="M18 7.516C18 8.335 17.335 9 16.516 9H1.484C0.665 9 0 8.335 0 7.516l0 0c0-0.82 0.665-1.484 1.484-1.484h15.031C17.335 6.031 18 6.696 18 7.516L18 7.516z" class="a" />
    <path d="M18 13.516C18 14.335 17.335 15 16.516 15H1.484C0.665 15 0 14.335 0 13.516l0 0c0-0.82 0.665-1.484 1.484-1.484h15.031C17.335 12.031 18 12.696 18 13.516L18 13.516z" class="a" />
</svg>
